<?xml version="1.0" encoding="UTF-8"?>
<svg width="40px" height="40px" viewBox="0 0 40 40" version="1.1" xmlns="http://www.w3.org/2000/svg" xmlns:xlink="http://www.w3.org/1999/xlink">
    <!-- Generator: Sketch 52.5 (67469) - http://www.bohemiancoding.com/sketch -->
    <title>Group 2</title>
    <desc>Created with Sketch.</desc>
    <g id="Page-1" stroke="none" stroke-width="1" fill="none" fill-rule="evenodd">
        <g id="Artboard" transform="translate(-15.000000, -678.000000)">
            <g id="Group-4" transform="translate(15.000000, 672.000000)">
                <g id="Group-5">
                    <g id="Group-6" transform="translate(0.000000, 6.000000)">
                        <g id="Group-2">
                            <circle id="Oval" fill-opacity="0.5" fill="#000000" cx="20" cy="20" r="20"></circle>
                            <path d="M28.1,12.4779221 L17.4863961,23.091526 L16.85,22.4551299 L27.4051299,11.9 L20,11.9 L20,11 L29,11 L29,11.9 L29,20 L28.1,20 L28.1,12.4779221 Z M11.9,29 L11,29 L11,11.9 L11,11 L16.4,11 L16.4,11.9 L11.9,11.9 L11.9,28.1 L28.1,28.1 L28.1,23.6 L29,23.6 L29,29 L28.1,29 L11.9,29 Z" id="Combined-Shape" fill="#FFFFFF"></path>
                        </g>
                    </g>
                </g>
            </g>
        </g>
    </g>
</svg>